<svg width="25" height="39" viewBox="0 0 25 39" fill="none" xmlns="http://www.w3.org/2000/svg">
<path d="M24.2175 4.10239C23.8932 3.60575 23.4194 3.59149 22.8795 3.57524C22.8183 3.57339 22.7563 3.57153 22.6936 3.56893C22.6458 3.56673 22.5931 3.56758 22.538 3.56846C22.319 3.57198 22.0629 3.57609 21.9339 3.39212C21.7843 3.17883 21.7985 2.76663 21.8102 2.42635C21.8139 2.31882 21.8173 2.21841 21.8153 2.1338C21.7943 1.34332 21.7504 0.503627 21.4453 0.222919C21.2152 0.0123088 20.5268 0.0414869 19.892 0.0683953C19.6862 0.0771183 19.486 0.0856034 19.3089 0.0856034H5.79595C5.52388 0.0856034 5.23869 0.0634485 4.95847 0.0416809C4.41244 -0.000734203 3.88532 -0.0416808 3.51099 0.0856034C2.96774 0.271231 2.93096 1.24667 2.89632 2.16519L2.89445 2.21461C2.86537 2.97288 2.67745 3.55799 2.05465 3.49906C1.33028 3.43161 0.609496 3.41035 0.281987 4.06594C-0.10481 4.84161 -0.0250371 5.65358 0.117848 7.10792C0.138258 7.31567 0.159957 7.53652 0.181767 7.77225H24.4264C24.4403 7.59995 24.455 7.42986 24.4696 7.26253C24.5831 5.95406 24.682 4.81402 24.2175 4.10239Z" fill="#8047F8"/>
<path fill-rule="evenodd" clip-rule="evenodd" d="M1.9993 9.97819C2.37796 15.103 2.75248 20.2336 3.127 25.3644L3.12723 25.3675C3.33059 28.1533 3.53395 30.9392 3.73797 33.7241H4.51155C4.56427 34.16 4.62458 34.6982 4.68818 35.2656C4.81727 36.4174 4.95988 37.6899 5.07977 38.4718H5.16534C5.9533 38.1835 11.4006 35.8551 11.403 26.5853C11.402 26.5589 11.4029 26.5325 11.4057 26.5062H10.0599C9.99472 26.5056 9.93157 26.4839 9.88014 26.4443C9.82871 26.4048 9.79184 26.3496 9.77521 26.2873C9.64406 25.9634 9.53832 25.6299 9.45892 25.2899C8.66721 25.7371 8.03849 26.4199 7.66239 27.241C7.30537 26.4 7.25864 25.4618 7.53037 24.5902C7.80209 23.7187 8.37499 22.9692 9.14895 22.4728C9.15893 19.7678 10.1717 17.1604 11.9956 15.1439L12.024 15.1189C12.077 15.073 12.1449 15.0475 12.2153 15.047C12.256 15.0473 21.1742 28.4079 21.2114 28.4244C21.249 28.4411 12.4046 15.1135 12.432 15.1439C14.2772 17.1631 15.2846 19.7957 15.2534 22.5166C16.0418 22.9991 16.6263 23.7481 16.8985 24.6244C17.1708 25.5006 17.1121 26.4448 16.7336 27.2816C16.3595 26.4592 15.7303 25.7759 14.9371 25.3306C14.8886 25.6601 14.7994 25.9825 14.6714 26.2905C14.6271 26.4218 14.5385 26.5062 14.45 26.5062H13.0148C13.017 26.5219 13.0186 26.5377 13.0196 26.5536L13.0201 26.5572V26.5649C13.0206 26.5785 13.0206 26.5922 13.0201 26.6059C13.0398 36.1418 18.8314 38.3063 19.3196 38.4718H19.4866C19.5293 37.7208 19.668 36.6843 19.8033 35.674C19.8966 34.9777 19.9881 34.2937 20.0454 33.7241H20.828C21.0784 30.2162 21.3361 26.7181 21.5937 23.2199L21.5938 23.218L21.5939 23.217C21.9234 18.7424 22.2529 14.2678 22.5675 9.77222H2.04941C1.99035 9.78376 1.99438 9.88037 1.9993 9.97819ZM12.2153 15.047L12.2138 15.0469H12.217L12.2153 15.047Z" fill="#8047F8"/>
</svg>
