<svg width="16" height="20" viewBox="0 0 16 20" fill="none" xmlns="http://www.w3.org/2000/svg">
<path d="M11.7081 15.7459C10.0176 17.7271 8.29103 18.9658 8.11407 19.0912C8.07997 19.1128 8.04042 19.1243 8 19.1243C7.95958 19.1243 7.92003 19.1128 7.88593 19.0912C7.70897 18.9658 5.98236 17.7271 4.29188 15.7459C2.56805 13.7256 0.937599 10.9988 0.9375 7.93778C0.9397 6.06529 1.68452 4.27012 3.00857 2.94607C4.33256 1.62208 6.12761 0.877274 8 0.875C9.87239 0.877275 11.6674 1.62208 12.9914 2.94607C14.3156 4.27019 15.0604 6.06548 15.0625 7.93807C15.0623 10.999 13.4319 13.7256 11.7081 15.7459ZM9.8056 5.23522C9.27114 4.87811 8.64279 4.6875 8 4.6875C7.13805 4.6875 6.3114 5.02991 5.7019 5.6394C5.09241 6.2489 4.75 7.07555 4.75 7.9375C4.75 8.58029 4.94061 9.20864 5.29772 9.7431C5.65484 10.2776 6.16242 10.6941 6.75628 10.9401C7.35014 11.1861 8.00361 11.2505 8.63404 11.1251C9.26448 10.9997 9.84358 10.6901 10.2981 10.2356C10.7526 9.78108 11.0622 9.20198 11.1876 8.57154C11.313 7.94111 11.2486 7.28764 11.0026 6.69378C10.7566 6.09992 10.3401 5.59234 9.8056 5.23522Z" fill="#8047F8" stroke="black"/>
</svg>
